<svg width="413" height="389" viewBox="0 0 413 389" fill="none" xmlns="http://www.w3.org/2000/svg">
<path d="M407.313 136.243L318.256 161.038C317.193 161.345 316.225 161.917 315.443 162.7C314.66 163.484 314.089 164.452 313.782 165.517L289.012 254.665C288.626 256.016 287.811 257.205 286.69 258.052C285.569 258.898 284.203 259.356 282.799 259.356C281.395 259.356 280.029 258.898 278.907 258.052C277.786 257.205 276.971 256.016 276.586 254.665L251.815 165.517C251.509 164.452 250.937 163.484 250.155 162.7C249.373 161.917 248.405 161.345 247.342 161.038L158.285 136.243C156.934 135.857 155.747 135.041 154.901 133.919C154.055 132.796 153.598 131.429 153.598 130.023C153.598 128.617 154.055 127.25 154.901 126.128C155.747 125.006 156.934 124.19 158.285 123.804L247.342 99.0079C248.405 98.7009 249.373 98.129 250.155 97.3459C250.937 96.5628 251.509 95.5939 251.815 94.5298L276.586 5.38168C276.971 4.03003 277.786 2.84095 278.907 1.99441C280.029 1.14787 281.395 0.689941 282.799 0.689941C284.203 0.689941 285.569 1.14787 286.69 1.99441C287.811 2.84095 288.626 4.03003 289.012 5.38168L313.782 94.5298C314.089 95.5939 314.66 96.5628 315.443 97.3459C316.225 98.129 317.193 98.7009 318.256 99.0079L407.313 123.804C408.663 124.19 409.851 125.006 410.697 126.128C411.543 127.25 412 128.617 412 130.023C412 131.429 411.543 132.796 410.697 133.919C409.851 135.041 408.663 135.857 407.313 136.243Z" fill="url(#paint0_linear_344_214)" stroke="black" stroke-width="0.3" stroke-linecap="round" stroke-linejoin="round"/>
<path d="M280.454 327.133L235.925 339.531C235.394 339.684 234.91 339.97 234.519 340.362C234.128 340.753 233.842 341.238 233.689 341.77L221.303 386.344C221.111 387.02 220.703 387.614 220.142 388.037C219.582 388.461 218.899 388.69 218.197 388.69C217.495 388.69 216.812 388.461 216.251 388.037C215.691 387.614 215.283 387.02 215.09 386.344L202.705 341.77C202.552 341.238 202.266 340.753 201.875 340.362C201.484 339.97 201 339.684 200.468 339.531L155.94 327.133C155.265 326.94 154.671 326.532 154.248 325.971C153.825 325.41 153.596 324.726 153.596 324.023C153.596 323.32 153.825 322.636 154.248 322.075C154.671 321.514 155.265 321.106 155.94 320.913L200.468 308.515C201 308.362 201.484 308.076 201.875 307.684C202.266 307.293 202.552 306.808 202.705 306.276L215.09 261.702C215.283 261.026 215.691 260.432 216.251 260.009C216.812 259.585 217.495 259.356 218.197 259.356C218.899 259.356 219.582 259.585 220.142 260.009C220.703 260.432 221.111 261.026 221.303 261.702L233.689 306.276C233.842 306.808 234.128 307.293 234.519 307.684C234.91 308.076 235.394 308.362 235.925 308.515L280.454 320.913C281.129 321.106 281.723 321.514 282.146 322.075C282.569 322.636 282.797 323.32 282.797 324.023C282.797 324.726 282.569 325.41 282.146 325.971C281.723 326.532 281.129 326.94 280.454 327.133Z" fill="url(#paint1_linear_344_214)" stroke="black" stroke-width="0.3" stroke-linecap="round" stroke-linejoin="round"/>
<path d="M185.344 225.289L120.637 243.305C119.865 243.528 119.162 243.944 118.593 244.513C118.025 245.082 117.61 245.786 117.387 246.559L99.3896 311.331C99.1094 312.313 98.5172 313.177 97.7026 313.793C96.8881 314.408 95.8955 314.74 94.8752 314.74C93.8549 314.74 92.8624 314.408 92.0478 313.793C91.2333 313.177 90.6411 312.313 90.3608 311.331L72.3633 246.559C72.1405 245.786 71.7254 245.082 71.157 244.513C70.5886 243.944 69.8853 243.528 69.113 243.305L4.40637 225.289C3.4253 225.009 2.56223 224.416 1.94778 223.6C1.33334 222.785 1.00094 221.791 1.00094 220.77C1.00094 219.749 1.33334 218.755 1.94778 217.94C2.56223 217.124 3.4253 216.532 4.40637 216.251L69.113 198.235C69.8853 198.012 70.5886 197.597 71.157 197.028C71.7254 196.459 72.1405 195.755 72.3633 194.981L90.3608 130.209C90.6411 129.227 91.2333 128.363 92.0478 127.748C92.8624 127.133 93.8549 126.8 94.8752 126.8C95.8955 126.8 96.8881 127.133 97.7026 127.748C98.5172 128.363 99.1094 129.227 99.3896 130.209L117.387 194.981C117.61 195.755 118.025 196.459 118.593 197.028C119.162 197.597 119.865 198.012 120.637 198.235L185.344 216.251C186.325 216.532 187.188 217.124 187.803 217.94C188.417 218.755 188.75 219.749 188.75 220.77C188.75 221.791 188.417 222.785 187.803 223.6C187.188 224.416 186.325 225.009 185.344 225.289Z" fill="url(#paint2_linear_344_214)" stroke="black" stroke-width="0.3" stroke-linecap="round" stroke-linejoin="round"/>
<defs>
<linearGradient id="paint0_linear_344_214" x1="339.215" y1="32.2505" x2="226.209" y2="227.696" gradientUnits="userSpaceOnUse">
<stop stop-color="#FCD966"/>
<stop offset="0.5" stop-color="#FCD966"/>
<stop offset="1" stop-color="#FCCD34"/>
</linearGradient>
<linearGradient id="paint1_linear_344_214" x1="246.405" y1="275.137" x2="189.902" y2="372.859" gradientUnits="userSpaceOnUse">
<stop stop-color="#FCD966"/>
<stop offset="0.5" stop-color="#FCD966"/>
<stop offset="1" stop-color="#FCCD34"/>
</linearGradient>
<linearGradient id="paint2_linear_344_214" x1="135.866" y1="149.731" x2="53.7586" y2="291.737" gradientUnits="userSpaceOnUse">
<stop stop-color="#FCD966"/>
<stop offset="0.5" stop-color="#FCD966"/>
<stop offset="1" stop-color="#FCCD34"/>
</linearGradient>
</defs>
</svg>
