<svg width="739" height="802" viewBox="0 0 739 802" fill="none" xmlns="http://www.w3.org/2000/svg">
<path fill-rule="evenodd" clip-rule="evenodd" d="M601.914 293.384C607.087 293.384 611.281 297.578 611.281 302.751V472.647L430.738 572.302C426.209 574.802 420.511 573.157 418.011 568.628C415.511 564.099 417.156 558.401 421.685 555.901L592.547 461.59V302.751C592.547 297.578 596.741 293.384 601.914 293.384Z" fill="black"/>
<path fill-rule="evenodd" clip-rule="evenodd" d="M250.509 293.384C245.336 293.384 241.142 297.578 241.142 302.751V472.647L421.685 572.302C426.214 574.802 431.912 573.157 434.412 568.628C436.912 564.099 435.267 558.401 430.738 555.901L259.876 461.59V302.751C259.876 297.578 255.682 293.384 250.509 293.384Z" fill="black"/>
<path fill-rule="evenodd" clip-rule="evenodd" d="M521.355 508.315C524.946 504.592 530.876 504.485 534.599 508.077L577.703 549.66C581.426 553.252 581.532 559.182 577.941 562.905C574.349 566.628 568.419 566.734 564.696 563.142L521.592 521.559C517.869 517.967 517.763 512.038 521.355 508.315Z" fill="black"/>
<path fill-rule="evenodd" clip-rule="evenodd" d="M335.474 508.315C331.882 504.592 325.952 504.485 322.229 508.077L279.126 549.66C275.403 553.252 275.296 559.182 278.888 562.905C282.48 566.628 288.409 566.734 292.132 563.142L335.236 521.559C338.959 517.967 339.066 512.038 335.474 508.315Z" fill="black"/>
<path d="M257.528 299.462L423.515 358.276L593.423 299.462V462.834L423.515 556.937L257.528 462.834V299.462Z" fill="url(#paint0_linear_346_444)"/>
<path d="M562.675 451.577L431.334 519.367C429.889 520.112 429.167 520.485 428.578 520.404C428.064 520.333 427.603 520.052 427.304 519.628C426.962 519.142 426.962 518.329 426.962 516.703V341.768C426.962 341.104 426.962 340.773 427.062 340.479C427.15 340.219 427.295 339.982 427.485 339.784C427.7 339.561 427.995 339.408 428.585 339.104L562.675 269.896V451.577Z" fill="#EDEDE5"/>
<path fill-rule="evenodd" clip-rule="evenodd" d="M567.061 262.697C569.572 264.227 571.105 266.955 571.105 269.896V456.713L435.06 526.931C434.478 527.232 433.611 527.68 432.802 528.008C431.942 528.357 429.935 529.102 427.421 528.754C424.595 528.362 422.059 526.817 420.415 524.486C418.952 522.412 418.695 520.286 418.61 519.362C418.53 518.493 418.531 517.517 418.532 516.862C418.532 516.807 418.532 516.754 418.532 516.703V341.768C418.532 341.765 418.532 341.756 418.531 341.743C418.523 341.501 418.458 339.593 419.082 337.761C419.569 336.332 420.364 335.028 421.41 333.94C422.752 332.545 424.477 331.727 424.696 331.624C424.708 331.618 424.715 331.614 424.718 331.613L558.808 262.405C561.422 261.056 564.549 261.167 567.061 262.697ZM554.245 283.734L435.392 345.077V507.785L554.245 446.442V283.734Z" fill="black"/>
<path d="M291.249 451.578L422.59 519.367C424.035 520.113 424.757 520.485 425.346 520.404C425.859 520.333 426.321 520.052 426.62 519.628C426.962 519.142 426.962 518.329 426.962 516.703V341.768C426.962 341.104 426.962 340.773 426.862 340.479C426.773 340.219 426.629 339.982 426.439 339.784C426.224 339.561 425.929 339.409 425.339 339.104L291.249 269.896V451.578Z" fill="#EDEDE5"/>
<path fill-rule="evenodd" clip-rule="evenodd" d="M286.863 262.697C284.352 264.227 282.819 266.955 282.819 269.896V456.713L418.864 526.931C419.446 527.232 420.313 527.68 421.122 528.008C421.982 528.357 423.989 529.103 426.503 528.754C429.328 528.363 431.865 526.817 433.509 524.486C434.971 522.412 435.229 520.287 435.314 519.362C435.394 518.493 435.393 517.517 435.392 516.862C435.392 516.807 435.392 516.754 435.392 516.703V341.768C435.392 341.765 435.392 341.756 435.393 341.743C435.401 341.501 435.466 339.593 434.842 337.761C434.355 336.332 433.56 335.028 432.514 333.94C431.172 332.545 429.447 331.727 429.228 331.624C429.216 331.618 429.208 331.614 429.206 331.613L295.116 262.405C292.502 261.056 289.375 261.167 286.863 262.697ZM299.679 283.734L418.532 345.077V507.785L299.679 446.442V283.734Z" fill="black"/>
<path fill-rule="evenodd" clip-rule="evenodd" d="M337.155 136.803C343.672 136.884 344.256 146.55 338.017 148.434C225.444 182.437 143.471 286.956 143.471 410.622C143.471 561.862 266.076 684.466 417.316 684.466C506.116 684.466 585.045 642.199 635.081 576.686C639.028 571.517 647.807 575.447 645.603 581.566C599.484 709.642 476.907 801.214 332.941 801.214C149.462 801.214 0.722656 652.475 0.722656 468.996C0.722656 285.516 149.462 136.777 332.941 136.777C334.348 136.777 335.753 136.786 337.155 136.803Z" fill="url(#paint1_linear_346_444)"/>
<path fill-rule="evenodd" clip-rule="evenodd" d="M327.175 136.826C324.34 136.874 321.513 136.958 318.696 137.077C141.825 144.538 0.722656 290.289 0.722656 468.996C0.722656 652.475 149.462 801.214 332.941 801.214C470.309 801.214 588.204 717.842 638.786 598.939C639.915 596.286 641.009 593.616 642.07 590.929C642.972 588.644 643.85 586.345 644.703 584.035C645.006 583.214 645.306 582.391 645.603 581.566C647.807 575.447 639.028 571.517 635.081 576.686C634.863 576.971 634.644 577.256 634.425 577.541C632.883 579.544 631.314 581.524 629.718 583.482C627.936 585.67 626.12 587.83 624.272 589.961C574.061 647.853 499.964 684.466 417.316 684.466C266.076 684.466 143.471 561.862 143.471 410.622C143.471 292.903 217.749 192.534 321.993 153.824C324.589 152.86 327.204 151.934 329.836 151.047C330.868 150.699 331.904 150.357 332.941 150.022C334.292 149.585 335.647 149.158 337.007 148.742C337.343 148.639 337.68 148.536 338.017 148.434C344.256 146.55 343.672 136.884 337.155 136.803C336.27 136.792 335.384 136.784 334.496 136.78C333.978 136.778 333.46 136.777 332.941 136.777C331.015 136.777 329.093 136.793 327.175 136.826ZM270.104 159.898C184.247 210.416 126.611 303.773 126.611 410.622C126.611 571.173 256.764 701.326 417.316 701.326C486.55 701.326 550.132 677.114 600.051 636.723C544.231 725.428 445.453 784.354 332.941 784.354C158.774 784.354 17.5829 643.163 17.5829 468.996C17.5829 316.345 126.043 189.027 270.104 159.898Z" fill="black"/>
<path fill-rule="evenodd" clip-rule="evenodd" d="M425.165 22.666C425.682 22.2756 426.313 22.0645 426.961 22.0645C427.609 22.0645 428.24 22.2756 428.757 22.666C429.275 23.0563 429.651 23.6047 429.829 24.2279L440.814 63.7224C440.814 63.7225 440.814 63.7222 440.814 63.7224C440.945 64.1746 441.188 64.5868 441.521 64.9196C441.854 65.2524 442.265 65.4954 442.717 65.626C442.718 65.6261 442.717 65.6259 442.717 65.626L482.212 76.611C482.835 76.789 483.384 77.1655 483.774 77.683C484.165 78.2005 484.376 78.831 484.376 79.4792C484.376 80.1275 484.165 80.758 483.774 81.2755C483.384 81.793 482.836 82.1692 482.212 82.3473L442.718 93.3322C442.718 93.3323 442.718 93.3322 442.718 93.3322C442.266 93.4628 441.854 93.706 441.521 94.0388C441.188 94.3717 440.945 94.7834 440.814 95.2356C440.814 95.2358 440.814 95.2355 440.814 95.2356L429.829 134.73C429.651 135.353 429.275 135.902 428.757 136.293C428.24 136.683 427.609 136.894 426.961 136.894C426.313 136.894 425.682 136.683 425.165 136.293C424.647 135.902 424.271 135.354 424.093 134.731L413.108 95.2361C413.108 95.2359 413.108 95.2364 413.108 95.2361C412.978 94.784 412.734 94.3716 412.402 94.0388C412.069 93.706 411.657 93.463 411.205 93.3324C411.205 93.3323 411.205 93.3324 411.205 93.3324L371.711 82.3475C371.087 82.1695 370.538 81.793 370.148 81.2755C369.758 80.758 369.546 80.1275 369.546 79.4792C369.546 78.831 369.758 78.2005 370.148 77.683C370.538 77.1655 371.087 76.7893 371.71 76.6112L411.204 65.6263C411.205 65.6262 411.204 65.6263 411.204 65.6263C411.656 65.4957 412.069 65.2524 412.402 64.9196C412.734 64.5869 412.977 64.1753 413.108 63.7232C413.108 63.7229 413.108 63.7235 413.108 63.7232L424.093 24.2287C424.271 23.6054 424.647 23.0563 425.165 22.666ZM426.961 22.2986C426.364 22.2986 425.783 22.4932 425.306 22.8529C424.829 23.2125 424.483 23.7177 424.318 24.2918C424.318 24.292 424.318 24.2917 424.318 24.2918L413.333 63.7862C413.192 64.2766 412.928 64.7243 412.567 65.0852C412.206 65.4462 411.76 65.7097 411.269 65.8512L371.774 76.8364C371.774 76.8364 371.774 76.8363 371.774 76.8364C371.2 77.0005 370.694 77.3473 370.335 77.824C369.975 78.3009 369.781 78.8819 369.781 79.4792C369.781 80.0766 369.975 80.6576 370.335 81.1345C370.694 81.6112 371.2 81.9579 371.774 82.122C371.774 82.122 371.774 82.122 371.774 82.122L411.268 93.1069C411.759 93.2485 412.206 93.5123 412.567 93.8733C412.928 94.2342 413.192 94.6808 413.333 95.1712L424.318 134.666C424.318 134.666 424.318 134.666 424.318 134.666C424.482 135.24 424.829 135.746 425.306 136.106C425.783 136.465 426.364 136.66 426.961 136.66C427.559 136.66 428.14 136.465 428.616 136.106C429.093 135.746 429.44 135.241 429.604 134.667C429.604 134.666 429.604 134.667 429.604 134.667L440.589 95.1723C440.73 94.6818 440.994 94.2342 441.355 93.8733C441.716 93.5123 442.163 93.2488 442.653 93.1072L482.148 82.1221C482.148 82.1221 482.148 82.1221 482.148 82.1221C482.722 81.958 483.228 81.6112 483.588 81.1345C483.947 80.6576 484.142 80.0766 484.142 79.4792C484.142 78.8819 483.947 78.3009 483.588 77.824C483.228 77.3473 482.723 77.0006 482.149 76.8365C482.148 76.8365 482.149 76.8365 482.149 76.8365L442.654 65.8516C442.164 65.71 441.716 65.4462 441.355 65.0852C440.994 64.7243 440.731 64.2777 440.589 63.7873L429.604 24.2922C429.604 24.2921 429.604 24.2924 429.604 24.2922C429.44 23.7181 429.093 23.2125 428.616 22.8529C428.14 22.4932 427.559 22.2986 426.961 22.2986Z" fill="#FCD34D"/>
<path d="M427.251 225.53L446.999 231.023C447.234 231.091 447.449 231.217 447.622 231.391C447.796 231.564 447.923 231.779 447.991 232.014L453.483 251.762C453.569 252.061 453.749 252.325 453.998 252.512C454.246 252.7 454.549 252.801 454.861 252.801C455.172 252.801 455.475 252.7 455.724 252.512C455.972 252.325 456.153 252.061 456.238 251.762L461.731 232.014C461.799 231.779 461.926 231.564 462.099 231.391C462.273 231.217 462.487 231.091 462.723 231.023L482.47 225.53C482.77 225.444 483.033 225.264 483.221 225.015C483.408 224.767 483.51 224.464 483.51 224.152C483.51 223.841 483.408 223.538 483.221 223.289C483.033 223.041 482.77 222.86 482.47 222.775L462.723 217.282C462.487 217.214 462.273 217.087 462.099 216.914C461.926 216.74 461.799 216.526 461.731 216.29L456.238 196.543C456.153 196.243 455.972 195.98 455.724 195.792C455.475 195.605 455.172 195.503 454.861 195.503C454.549 195.503 454.246 195.605 453.998 195.792C453.749 195.98 453.569 196.243 453.483 196.543L447.991 216.29C447.923 216.526 447.796 216.74 447.622 216.914C447.449 217.087 447.234 217.214 446.999 217.282L427.251 222.775C426.952 222.86 426.688 223.041 426.501 223.289C426.313 223.538 426.212 223.841 426.212 224.152C426.212 224.464 426.313 224.767 426.501 225.015C426.688 225.264 426.952 225.444 427.251 225.53Z" fill="url(#paint2_linear_346_444)"/>
<path fill-rule="evenodd" clip-rule="evenodd" d="M453.927 195.699C454.196 195.496 454.524 195.386 454.861 195.386C455.197 195.386 455.525 195.496 455.794 195.699C456.063 195.902 456.258 196.187 456.351 196.51L461.843 216.258C461.843 216.258 461.843 216.257 461.843 216.258C461.906 216.474 462.023 216.672 462.182 216.831C462.341 216.99 462.538 217.107 462.755 217.169C462.755 217.169 462.755 217.169 462.755 217.169L482.502 222.662C482.826 222.754 483.111 222.95 483.314 223.219C483.517 223.488 483.627 223.815 483.627 224.152C483.627 224.489 483.517 224.817 483.314 225.086C483.111 225.354 482.826 225.55 482.502 225.642L462.755 231.135C462.755 231.135 462.756 231.135 462.755 231.135C462.539 231.197 462.341 231.314 462.182 231.473C462.023 231.633 461.906 231.83 461.844 232.046C461.844 232.047 461.844 232.046 461.844 232.046L456.351 251.793C456.259 252.117 456.063 252.403 455.794 252.606C455.525 252.808 455.197 252.918 454.861 252.918C454.524 252.918 454.196 252.808 453.927 252.606C453.658 252.403 453.463 252.118 453.37 251.794L447.878 232.047C447.878 232.047 447.878 232.047 447.878 232.047C447.815 231.83 447.699 231.633 447.539 231.473C447.38 231.314 447.183 231.198 446.966 231.135C446.966 231.135 446.967 231.135 446.966 231.135L427.22 225.643C426.896 225.55 426.61 225.354 426.407 225.086C426.204 224.817 426.095 224.489 426.095 224.152C426.095 223.815 426.204 223.488 426.407 223.219C426.61 222.95 426.895 222.754 427.219 222.662L446.966 217.169C446.966 217.169 446.966 217.169 446.966 217.169C447.182 217.107 447.38 216.99 447.539 216.831C447.699 216.672 447.815 216.474 447.878 216.258C447.878 216.258 447.878 216.258 447.878 216.258L453.37 196.511C453.463 196.187 453.658 195.902 453.927 195.699ZM454.861 195.62C454.575 195.62 454.297 195.714 454.068 195.886C453.84 196.058 453.674 196.3 453.596 196.574C453.596 196.574 453.596 196.574 453.596 196.574L448.103 216.321C448.03 216.576 447.893 216.809 447.705 216.997C447.518 217.184 447.286 217.321 447.031 217.394L427.283 222.887C427.283 222.887 427.283 222.887 427.283 222.887C427.008 222.966 426.766 223.132 426.594 223.36C426.422 223.588 426.329 223.866 426.329 224.152C426.329 224.438 426.422 224.716 426.594 224.945C426.766 225.173 427.008 225.339 427.283 225.417C427.283 225.417 427.283 225.417 427.283 225.417L447.03 230.91C447.285 230.983 447.518 231.12 447.705 231.308C447.893 231.495 448.029 231.727 448.103 231.982L453.596 251.73C453.596 251.73 453.595 251.729 453.596 251.73C453.674 252.004 453.84 252.246 454.068 252.419C454.297 252.591 454.575 252.684 454.861 252.684C455.147 252.684 455.425 252.591 455.653 252.419C455.881 252.246 456.047 252.005 456.126 251.73C456.126 251.73 456.126 251.73 456.126 251.73L461.618 231.983C461.692 231.728 461.829 231.495 462.016 231.308C462.204 231.12 462.436 230.983 462.69 230.91L482.438 225.417C482.438 225.417 482.438 225.417 482.438 225.417C482.713 225.339 482.955 225.173 483.127 224.945C483.299 224.716 483.392 224.438 483.392 224.152C483.392 223.866 483.299 223.588 483.127 223.36C482.955 223.132 482.713 222.966 482.438 222.887C482.438 222.887 482.439 222.887 482.438 222.887L462.692 217.395C462.437 217.321 462.204 217.184 462.016 216.997C461.829 216.809 461.692 216.577 461.618 216.322L456.126 196.575C456.126 196.575 456.126 196.575 456.126 196.575C456.047 196.3 455.881 196.058 455.653 195.886C455.425 195.714 455.147 195.62 454.861 195.62Z" fill="#FCD34D"/>
<path d="M487.975 155.874L516.671 163.856C517.013 163.955 517.325 164.139 517.577 164.391C517.83 164.643 518.014 164.955 518.112 165.297L526.094 193.993C526.218 194.428 526.481 194.811 526.842 195.083C527.203 195.356 527.643 195.503 528.096 195.503C528.548 195.503 528.989 195.356 529.35 195.083C529.711 194.811 529.974 194.428 530.098 193.993L538.079 165.297C538.178 164.955 538.362 164.643 538.614 164.391C538.866 164.139 539.178 163.955 539.521 163.856L568.217 155.874C568.652 155.75 569.035 155.487 569.307 155.126C569.58 154.765 569.727 154.325 569.727 153.872C569.727 153.42 569.58 152.98 569.307 152.618C569.035 152.257 568.652 151.995 568.217 151.87L539.521 143.889C539.178 143.79 538.866 143.606 538.614 143.354C538.362 143.102 538.178 142.79 538.079 142.447L530.098 113.751C529.974 113.316 529.711 112.934 529.35 112.661C528.989 112.389 528.548 112.241 528.096 112.241C527.643 112.241 527.203 112.389 526.842 112.661C526.481 112.934 526.218 113.316 526.094 113.751L518.112 142.447C518.014 142.79 517.83 143.102 517.577 143.354C517.325 143.606 517.013 143.79 516.671 143.889L487.975 151.87C487.54 151.995 487.157 152.257 486.885 152.618C486.612 152.98 486.465 153.42 486.465 153.872C486.465 154.325 486.612 154.765 486.885 155.126C487.157 155.487 487.54 155.75 487.975 155.874Z" fill="url(#paint3_linear_346_444)"/>
<path fill-rule="evenodd" clip-rule="evenodd" d="M526.771 112.568C527.153 112.28 527.618 112.124 528.096 112.124C528.574 112.124 529.039 112.28 529.42 112.568C529.802 112.855 530.079 113.26 530.21 113.719L538.192 142.415C538.192 142.415 538.192 142.415 538.192 142.415C538.285 142.738 538.459 143.033 538.697 143.271C538.935 143.509 539.229 143.683 539.553 143.776C539.553 143.776 539.553 143.776 539.553 143.776L568.248 151.757C568.708 151.889 569.113 152.166 569.4 152.548C569.688 152.929 569.844 153.394 569.844 153.872C569.844 154.35 569.688 154.815 569.4 155.197C569.113 155.578 568.708 155.856 568.249 155.987L539.553 163.968C539.553 163.968 539.553 163.968 539.553 163.968C539.23 164.062 538.935 164.235 538.697 164.473C538.459 164.711 538.285 165.006 538.192 165.329C538.192 165.329 538.192 165.329 538.192 165.329L530.211 194.024C530.079 194.484 529.802 194.889 529.42 195.177C529.039 195.465 528.574 195.62 528.096 195.62C527.618 195.62 527.153 195.465 526.771 195.177C526.39 194.889 526.112 194.485 525.981 194.025L518 165.33C518 165.329 518 165.33 518 165.33C517.906 165.006 517.732 164.711 517.495 164.473C517.257 164.235 516.962 164.062 516.639 163.968C516.639 163.968 516.639 163.968 516.639 163.968L487.944 155.987C487.484 155.856 487.079 155.578 486.791 155.197C486.503 154.815 486.348 154.35 486.348 153.872C486.348 153.394 486.503 152.929 486.791 152.548C487.079 152.166 487.483 151.889 487.943 151.758L516.638 143.776C516.639 143.776 516.638 143.776 516.638 143.776C516.962 143.683 517.257 143.509 517.495 143.271C517.733 143.033 517.906 142.738 518 142.415C518 142.415 518 142.415 518 142.415L525.981 113.72C526.112 113.26 526.39 112.855 526.771 112.568ZM528.096 112.358C527.669 112.358 527.253 112.497 526.912 112.754C526.572 113.012 526.324 113.373 526.206 113.783C526.206 113.783 526.207 113.783 526.206 113.783L518.225 142.479C518.121 142.84 517.926 143.17 517.66 143.436C517.394 143.703 517.065 143.897 516.703 144.001L488.007 151.983C488.007 151.983 488.007 151.983 488.007 151.983C487.597 152.1 487.235 152.348 486.978 152.689C486.721 153.03 486.582 153.445 486.582 153.872C486.582 154.299 486.721 154.715 486.978 155.056C487.235 155.396 487.596 155.644 488.007 155.762C488.007 155.762 488.007 155.761 488.007 155.762L516.702 163.743C517.064 163.847 517.394 164.042 517.66 164.308C517.926 164.574 518.12 164.903 518.225 165.265L526.206 193.961C526.206 193.961 526.206 193.961 526.206 193.961C526.324 194.371 526.572 194.733 526.912 194.99C527.253 195.247 527.669 195.386 528.096 195.386C528.523 195.386 528.938 195.247 529.279 194.99C529.62 194.733 529.868 194.372 529.985 193.962C529.985 193.961 529.985 193.962 529.985 193.962L537.967 165.266C538.071 164.904 538.265 164.574 538.532 164.308C538.798 164.042 539.127 163.848 539.488 163.743L568.185 155.762C568.185 155.762 568.184 155.762 568.185 155.762C568.595 155.644 568.956 155.396 569.214 155.056C569.471 154.715 569.61 154.299 569.61 153.872C569.61 153.445 569.471 153.03 569.214 152.689C568.956 152.348 568.595 152.1 568.185 151.983C568.185 151.983 568.185 151.983 568.185 151.983L539.489 144.001C539.128 143.897 538.798 143.703 538.532 143.436C538.265 143.17 538.071 142.841 537.967 142.48L529.985 113.783C529.985 113.783 529.985 113.784 529.985 113.783C529.868 113.373 529.62 113.012 529.279 112.754C528.938 112.497 528.523 112.358 528.096 112.358Z" fill="#FCD34D"/>
<path d="M604.391 238.083L651.453 251.172C652.015 251.334 652.527 251.636 652.94 252.05C653.354 252.463 653.655 252.975 653.817 253.536L666.907 300.598C667.111 301.312 667.542 301.94 668.134 302.387C668.727 302.834 669.449 303.075 670.191 303.075C670.933 303.075 671.655 302.834 672.247 302.387C672.84 301.94 673.27 301.312 673.474 300.598L686.564 253.536C686.726 252.975 687.028 252.463 687.441 252.05C687.855 251.636 688.366 251.334 688.928 251.172L735.99 238.083C736.704 237.879 737.331 237.448 737.778 236.856C738.225 236.263 738.467 235.541 738.467 234.799C738.467 234.057 738.225 233.335 737.778 232.743C737.331 232.15 736.704 231.72 735.99 231.516L688.928 218.426C688.366 218.264 687.855 217.962 687.441 217.548C687.028 217.135 686.726 216.624 686.564 216.062L673.474 169C673.27 168.286 672.84 167.658 672.247 167.212C671.655 166.765 670.933 166.523 670.191 166.523C669.449 166.523 668.727 166.765 668.134 167.212C667.542 167.658 667.111 168.286 666.907 169L653.817 216.062C653.655 216.624 653.354 217.135 652.94 217.548C652.527 217.962 652.015 218.264 651.453 218.426L604.391 231.516C603.678 231.72 603.05 232.15 602.603 232.743C602.156 233.335 601.915 234.057 601.915 234.799C601.915 235.541 602.156 236.263 602.603 236.856C603.05 237.448 603.678 237.879 604.391 238.083Z" fill="url(#paint4_linear_346_444)"/>
<path d="M350.301 71.7842L397.363 84.874C397.924 85.0361 398.436 85.338 398.849 85.7514C399.263 86.1648 399.565 86.6763 399.727 87.238L412.816 134.3C413.02 135.014 413.451 135.641 414.043 136.088C414.636 136.535 415.358 136.777 416.1 136.777C416.842 136.777 417.564 136.535 418.156 136.088C418.749 135.641 419.179 135.014 419.383 134.3L432.473 87.238C432.635 86.6763 432.937 86.1648 433.351 85.7514C433.764 85.338 434.275 85.0361 434.837 84.874L481.899 71.7842C482.613 71.5803 483.241 71.1496 483.687 70.5572C484.134 69.9648 484.376 69.2429 484.376 68.5008C484.376 67.7587 484.134 67.0368 483.687 66.4444C483.241 65.8519 482.613 65.4212 481.899 65.2174L434.837 52.1275C434.275 51.9654 433.764 51.6636 433.351 51.2502C432.937 50.8367 432.635 50.3252 432.473 49.7635L419.383 2.70142C419.179 1.98787 418.749 1.36015 418.156 0.91325C417.564 0.466353 416.842 0.224609 416.1 0.224609C415.358 0.224609 414.636 0.466353 414.043 0.91325C413.451 1.36015 413.02 1.98787 412.816 2.70142L399.727 49.7635C399.565 50.3252 399.263 50.8367 398.849 51.2502C398.436 51.6636 397.924 51.9654 397.363 52.1275L350.301 65.2174C349.587 65.4212 348.959 65.8519 348.512 66.4444C348.065 67.0368 347.824 67.7587 347.824 68.5008C347.824 69.2429 348.065 69.9648 348.512 70.5572C348.959 71.1496 349.587 71.5803 350.301 71.7842Z" fill="url(#paint5_linear_346_444)"/>
<path fill-rule="evenodd" clip-rule="evenodd" d="M668.064 167.118C668.676 166.656 669.423 166.406 670.191 166.406C670.958 166.406 671.705 166.656 672.318 167.118C672.93 167.58 673.376 168.229 673.587 168.967L673.587 168.968L686.676 216.029C686.676 216.029 686.676 216.03 686.676 216.03C686.833 216.572 687.125 217.066 687.524 217.466C687.923 217.865 688.417 218.156 688.96 218.313C688.96 218.313 688.96 218.313 688.96 218.313L736.021 231.403L736.022 231.403C736.76 231.614 737.409 232.059 737.872 232.672C738.334 233.285 738.584 234.031 738.584 234.799C738.584 235.567 738.334 236.313 737.872 236.926C737.409 237.539 736.76 237.984 736.022 238.195L736.021 238.195L688.96 251.285C688.96 251.285 688.96 251.285 688.96 251.285C688.417 251.442 687.923 251.733 687.524 252.132C687.125 252.532 686.833 253.026 686.676 253.568C686.676 253.568 686.676 253.569 686.676 253.569L673.587 300.63L673.587 300.631C673.376 301.369 672.93 302.018 672.318 302.48C671.705 302.942 670.958 303.192 670.191 303.192C669.423 303.192 668.676 302.942 668.064 302.48C667.451 302.018 667.005 301.369 666.795 300.631L666.794 300.63L653.705 253.569C653.705 253.569 653.705 253.568 653.705 253.568C653.548 253.026 653.257 252.532 652.857 252.132C652.458 251.733 651.964 251.442 651.421 251.285C651.421 251.285 651.421 251.285 651.421 251.285L604.36 238.195L604.359 238.195C603.621 237.984 602.972 237.539 602.51 236.926C602.047 236.313 601.797 235.567 601.797 234.799C601.797 234.031 602.047 233.285 602.51 232.672C602.972 232.059 603.621 231.614 604.359 231.403L604.36 231.403L651.421 218.313C651.421 218.313 651.421 218.313 651.421 218.313C651.964 218.156 652.458 217.865 652.857 217.466C653.257 217.066 653.548 216.572 653.705 216.03C653.705 216.03 653.705 216.029 653.705 216.029L666.794 168.968L666.795 168.967C667.005 168.229 667.451 167.58 668.064 167.118ZM670.191 166.64C669.474 166.64 668.777 166.873 668.205 167.305C667.633 167.736 667.217 168.342 667.02 169.031C667.02 169.032 667.02 169.032 667.02 169.032L653.93 216.093L653.93 216.094C653.762 216.675 653.45 217.204 653.023 217.631C652.595 218.059 652.067 218.371 651.486 218.538L651.485 218.539L604.423 231.628C604.423 231.628 604.423 231.628 604.423 231.628C603.734 231.825 603.128 232.241 602.697 232.813C602.265 233.385 602.032 234.082 602.032 234.799C602.032 235.516 602.265 236.213 602.697 236.785C603.128 237.357 603.734 237.773 604.423 237.97C604.423 237.97 604.423 237.97 604.423 237.97L651.485 251.059L651.486 251.06C652.067 251.227 652.595 251.539 653.023 251.967C653.45 252.394 653.762 252.923 653.93 253.504L653.93 253.505L667.02 300.566C667.02 300.566 667.02 300.566 667.02 300.567C667.217 301.255 667.633 301.862 668.205 302.293C668.777 302.725 669.474 302.958 670.191 302.958C670.907 302.958 671.604 302.725 672.177 302.293C672.749 301.862 673.164 301.255 673.361 300.567C673.361 300.566 673.361 300.566 673.361 300.566L686.451 253.505L686.451 253.504C686.619 252.923 686.931 252.394 687.358 251.967C687.786 251.539 688.315 251.227 688.895 251.06L688.897 251.059L735.958 237.97C735.958 237.97 735.958 237.97 735.958 237.97C736.647 237.773 737.253 237.357 737.685 236.785C738.116 236.213 738.35 235.516 738.35 234.799C738.35 234.082 738.116 233.385 737.685 232.813C737.253 232.241 736.647 231.825 735.958 231.628C735.958 231.628 735.958 231.628 735.958 231.628L688.897 218.539L688.895 218.538C688.315 218.371 687.786 218.059 687.358 217.631C686.931 217.204 686.619 216.675 686.451 216.094L686.451 216.093L673.361 169.032C673.361 169.032 673.361 169.032 673.361 169.031C673.164 168.342 672.749 167.736 672.177 167.305C671.604 166.873 670.907 166.64 670.191 166.64Z" fill="#FCD34D"/>
<path d="M257.528 734.16C257.528 744.168 249.415 752.281 239.407 752.281C229.4 752.281 221.287 744.168 221.287 734.16C221.287 724.153 229.4 716.04 239.407 716.04C249.415 716.04 257.528 724.153 257.528 734.16Z" fill="#1C171A" fill-opacity="0.7"/>
<path d="M99.9978 325.087C99.9978 330.858 95.3193 335.537 89.548 335.537C83.7767 335.537 79.0981 330.858 79.0981 325.087C79.0981 319.316 83.7767 314.637 89.548 314.637C95.3193 314.637 99.9978 319.316 99.9978 325.087Z" fill="#1C171A" fill-opacity="0.7"/>
<path d="M79.0982 531.379C79.0982 540.526 71.6831 547.941 62.5362 547.941C53.3892 547.941 45.9741 540.526 45.9741 531.379C45.9741 522.232 53.3892 514.817 62.5362 514.817C71.6831 514.817 79.0982 522.232 79.0982 531.379Z" fill="#1C171A" fill-opacity="0.7"/>
<path d="M465.311 744.61C465.311 750.382 460.632 755.06 454.861 755.06C449.09 755.06 444.411 750.382 444.411 744.61C444.411 738.839 449.09 734.161 454.861 734.161C460.632 734.161 465.311 738.839 465.311 744.61Z" fill="#1C171A" fill-opacity="0.3"/>
<path d="M146.697 299.462C146.697 305.233 142.018 309.912 136.247 309.912C130.475 309.912 125.797 305.233 125.797 299.462C125.797 293.691 130.475 289.012 136.247 289.012C142.018 289.012 146.697 293.691 146.697 299.462Z" fill="#1C171A" fill-opacity="0.3"/>
<path d="M198.748 639.172C198.748 644.943 194.07 649.621 188.298 649.621C182.527 649.621 177.849 644.943 177.849 639.172C177.849 633.4 182.527 628.722 188.298 628.722C194.07 628.722 198.748 633.4 198.748 639.172Z" fill="#1C171A"/>
<path d="M349.633 726.49C349.633 732.261 344.954 736.94 339.183 736.94C333.411 736.94 328.733 732.261 328.733 726.49C328.733 720.719 333.411 716.04 339.183 716.04C344.954 716.04 349.633 720.719 349.633 726.49Z" fill="#1C171A" fill-opacity="0.5"/>
<path d="M89.5481 628.722C89.5481 634.493 84.8696 639.172 79.0983 639.172C73.327 639.172 68.6484 634.493 68.6484 628.722C68.6484 622.951 73.327 618.272 79.0983 618.272C84.8696 618.272 89.5481 622.951 89.5481 628.722Z" fill="#1C171A" fill-opacity="0.3"/>
<path d="M146.697 299.462C146.697 305.233 142.018 309.912 136.247 309.912C130.475 309.912 125.797 305.233 125.797 299.462C125.797 293.691 130.475 289.012 136.247 289.012C142.018 289.012 146.697 293.691 146.697 299.462Z" fill="#1C171A" fill-opacity="0.3"/>
<defs>
<linearGradient id="paint0_linear_346_444" x1="303.438" y1="319.248" x2="452.526" y2="623.804" gradientUnits="userSpaceOnUse">
<stop stop-color="#FFDB63"/>
<stop offset="0.971252" stop-color="#C5A047"/>
</linearGradient>
<linearGradient id="paint1_linear_346_444" x1="88.9117" y1="187.838" x2="181.957" y2="888.475" gradientUnits="userSpaceOnUse">
<stop stop-color="#FFF5D5"/>
<stop offset="0.315" stop-color="#FFF8E8"/>
<stop offset="0.77" stop-color="#FFDD8A"/>
</linearGradient>
<linearGradient id="paint2_linear_346_444" x1="442.351" y1="202.494" x2="467.371" y2="245.81" gradientUnits="userSpaceOnUse">
<stop stop-color="#FCD966"/>
<stop offset="0.5" stop-color="#FCD966"/>
<stop offset="1" stop-color="#FCCD34"/>
</linearGradient>
<linearGradient id="paint3_linear_346_444" x1="509.917" y1="122.4" x2="546.274" y2="185.344" gradientUnits="userSpaceOnUse">
<stop stop-color="#FCD966"/>
<stop offset="0.5" stop-color="#FCD966"/>
<stop offset="1" stop-color="#FCCD34"/>
</linearGradient>
<linearGradient id="paint4_linear_346_444" x1="640.377" y1="183.184" x2="700.004" y2="286.414" gradientUnits="userSpaceOnUse">
<stop stop-color="#FCD966"/>
<stop offset="0.5" stop-color="#FCD966"/>
<stop offset="1" stop-color="#FCCD34"/>
</linearGradient>
<linearGradient id="paint5_linear_346_444" x1="386.287" y1="16.8857" x2="445.913" y2="120.116" gradientUnits="userSpaceOnUse">
<stop stop-color="#FCD966"/>
<stop offset="0.5" stop-color="#FCD966"/>
<stop offset="1" stop-color="#FCCD34"/>
</linearGradient>
</defs>
</svg>
