<svg width="334" height="335" viewBox="0 0 334 335" fill="none" xmlns="http://www.w3.org/2000/svg">
<path fill-rule="evenodd" clip-rule="evenodd" d="M15.2786 130.379C25.8163 119.861 33.9208 99.7273 33.6264 84.8528C33.4787 77.8299 34.7553 70.8498 37.3792 64.3338C40.0031 57.8178 43.92 51.901 48.8935 46.9404C54.0457 41.7749 60.2271 37.7513 67.0361 35.1312C73.8451 32.511 81.1292 31.353 88.415 31.7322C102.426 32.4387 120.126 25.649 130.017 15.7195C139.804 5.94129 153.073 0.44873 166.909 0.44873C180.744 0.44873 194.013 5.94129 203.801 15.7195C213.71 25.6293 231.391 32.4387 245.402 31.7322C252.691 31.3502 259.979 32.5069 266.792 35.1271C273.604 37.7473 279.789 41.7723 284.943 46.9404C289.916 51.9049 293.83 57.8257 296.451 64.3452C299.072 70.8647 300.344 77.8476 300.191 84.8724C299.896 99.7273 308.04 119.881 318.539 130.399C328.317 140.214 333.797 153.51 333.775 167.364C333.753 181.219 328.23 194.497 318.421 204.281C308.06 214.642 300.485 232.499 300.21 247.138C299.956 260.609 294.482 273.455 284.943 282.971C275.801 292.132 263.57 297.555 250.642 298.179C235.12 298.964 214.79 307.991 203.801 318.98C194.013 328.758 180.744 334.25 166.909 334.25C153.073 334.25 139.804 328.758 130.017 318.98C119.028 307.991 98.7173 298.964 83.1952 298.179C70.2671 297.555 58.0363 292.132 48.8935 282.971C39.364 273.465 33.8915 260.635 33.6264 247.178C33.3321 232.499 25.6593 214.524 15.2786 204.143C5.50634 194.357 0.0175781 181.092 0.0175781 167.261C0.0175781 153.431 5.50634 140.166 15.2786 130.379Z" fill="white"/>
<path fill-rule="evenodd" clip-rule="evenodd" d="M83.322 81.8711C80.831 84.353 78.8697 87.3147 77.5567 90.5767C76.2438 93.8388 75.6066 97.3333 75.6836 100.849C75.8411 109.511 73.6362 118.677 70.4391 126.615C67.2421 134.568 62.4701 142.71 56.3594 148.837C51.469 153.738 48.7225 160.379 48.7225 167.303C48.7225 174.226 51.469 180.867 56.3594 185.768C67.5413 196.966 75.3529 215.267 75.6836 231.11C75.808 237.718 78.4397 244.032 83.0454 248.773C87.6512 253.513 93.8867 256.325 100.489 256.64C109.151 257.065 118.269 259.695 126.27 263.254C134.255 266.798 142.318 271.79 148.445 277.917C153.346 282.807 159.987 285.554 166.911 285.554C173.834 285.554 180.475 282.807 185.377 277.917C191.503 271.79 199.551 266.798 207.552 263.239C215.552 259.695 224.671 257.065 233.333 256.64C239.941 256.328 246.183 253.513 250.791 248.765C255.398 244.017 258.025 237.694 258.138 231.079C258.453 215.298 266.154 197.076 277.352 185.879C279.792 183.454 281.73 180.572 283.056 177.398C284.382 174.224 285.069 170.82 285.079 167.38C285.09 163.941 284.422 160.533 283.115 157.351C281.808 154.169 279.887 151.276 277.462 148.837C271.351 142.726 266.595 134.584 263.382 126.63C260.17 118.677 257.965 109.511 258.138 100.849C258.213 97.3322 257.573 93.837 256.257 90.5748C254.942 87.3127 252.978 84.3517 250.484 81.8711C247.908 79.2816 244.814 77.2644 241.406 75.951C237.997 74.6376 234.35 74.0574 230.703 74.2485C215.017 75.0359 196.48 67.9173 185.377 56.8141C180.475 51.9237 173.834 49.1773 166.911 49.1773C159.987 49.1773 153.346 51.9237 148.445 56.8141C137.342 67.9173 118.805 75.0359 103.119 74.2485C99.4684 74.0552 95.8184 74.6342 92.4071 75.9477C88.9958 77.2612 85.9 79.2796 83.322 81.8711ZM59.9344 101.132C60.1707 113.07 53.6663 129.245 45.209 137.686C37.3661 145.541 32.9609 156.187 32.9609 167.287C32.9609 178.387 37.3661 189.033 45.209 196.887C53.556 205.219 59.6982 219.645 59.9344 231.41C60.1549 241.835 64.234 252.198 72.1873 260.152C79.5251 267.505 89.3411 271.857 99.7169 272.357C112.174 272.987 128.491 280.216 137.31 289.052C145.165 296.894 155.811 301.3 166.911 301.3C178.011 301.3 188.657 296.894 196.511 289.052C205.331 280.216 221.647 272.987 234.105 272.357C244.48 271.857 254.296 267.505 261.634 260.152C269.284 252.513 273.671 242.203 273.871 231.394C274.108 219.629 280.171 205.313 288.502 196.998C296.38 189.145 300.815 178.484 300.833 167.361C300.851 156.238 296.449 145.564 288.597 137.686C280.155 129.245 273.635 113.086 273.887 101.148C274.008 95.5091 272.984 89.9041 270.878 84.6717C268.772 79.4393 265.628 74.688 261.634 70.7049C257.497 66.5572 252.534 63.3269 247.066 61.2239C241.599 59.121 235.75 58.1927 229.9 58.4993C218.655 59.0663 204.465 53.6171 196.511 45.648C188.656 37.8003 178.007 33.3921 166.903 33.3921C155.799 33.3921 145.15 37.8003 137.294 45.648C129.357 53.6171 115.151 59.0663 103.906 58.4993C98.0587 58.1949 92.2127 59.1244 86.748 61.2272C81.2834 63.3301 76.3223 66.5593 72.1873 70.7049C68.1958 74.6862 65.0522 79.4349 62.9463 84.6644C60.8404 89.894 59.8158 95.4959 59.9344 101.132Z" fill="#5054FF"/>
<path fill-rule="evenodd" clip-rule="evenodd" d="M83.322 81.8711C80.831 84.353 78.8697 87.3147 77.5567 90.5767C76.2438 93.8388 75.6066 97.3333 75.6836 100.849C75.8411 109.511 73.6362 118.677 70.4391 126.615C67.2421 134.568 62.4701 142.71 56.3594 148.837C51.469 153.738 48.7225 160.379 48.7225 167.303C48.7225 174.226 51.469 180.867 56.3594 185.768C67.5413 196.966 75.3529 215.267 75.6836 231.11C75.808 237.718 78.4397 244.032 83.0454 248.773C87.6512 253.513 93.8867 256.325 100.489 256.64C109.151 257.065 118.269 259.695 126.27 263.254C134.255 266.798 142.318 271.79 148.445 277.917C153.346 282.807 159.987 285.554 166.911 285.554C173.834 285.554 180.475 282.807 185.377 277.917C191.503 271.79 199.551 266.798 207.552 263.239C215.552 259.695 224.671 257.065 233.333 256.64C239.941 256.328 246.183 253.513 250.791 248.765C255.398 244.017 258.025 237.694 258.138 231.079C258.453 215.298 266.154 197.076 277.352 185.879C279.792 183.454 281.73 180.572 283.056 177.398C284.382 174.224 285.069 170.82 285.079 167.38C285.09 163.941 284.422 160.533 283.115 157.351C281.808 154.169 279.887 151.276 277.462 148.837C271.351 142.726 266.595 134.584 263.382 126.63C260.17 118.677 257.965 109.511 258.138 100.849C258.213 97.3322 257.573 93.837 256.257 90.5748C254.942 87.3127 252.978 84.3517 250.484 81.8711C247.908 79.2816 244.814 77.2644 241.406 75.951C237.997 74.6376 234.35 74.0574 230.703 74.2485C215.017 75.0359 196.48 67.9173 185.377 56.8141C180.475 51.9237 173.834 49.1773 166.911 49.1773C159.987 49.1773 153.346 51.9237 148.445 56.8141C137.342 67.9173 118.805 75.0359 103.119 74.2485C99.4684 74.0552 95.8184 74.6342 92.4071 75.9477C88.9958 77.2612 85.9 79.2796 83.322 81.8711ZM59.9344 101.132C60.1707 113.07 53.6663 129.245 45.209 137.686C37.3661 145.541 32.9609 156.187 32.9609 167.287C32.9609 178.387 37.3661 189.033 45.209 196.887C53.556 205.219 59.6982 219.645 59.9344 231.41C60.1549 241.835 64.234 252.198 72.1873 260.152C79.5251 267.505 89.3411 271.857 99.7169 272.357C112.174 272.987 128.491 280.216 137.31 289.052C145.165 296.894 155.811 301.3 166.911 301.3C178.011 301.3 188.657 296.894 196.511 289.052C205.331 280.216 221.647 272.987 234.105 272.357C244.48 271.857 254.296 267.505 261.634 260.152C269.284 252.513 273.671 242.203 273.871 231.394C274.108 219.629 280.171 205.313 288.502 196.998C296.38 189.145 300.815 178.484 300.833 167.361C300.851 156.238 296.449 145.564 288.597 137.686C280.155 129.245 273.635 113.086 273.887 101.148C274.008 95.5091 272.984 89.9041 270.878 84.6717C268.772 79.4393 265.628 74.688 261.634 70.7049C257.497 66.5572 252.534 63.3269 247.066 61.2239C241.599 59.121 235.75 58.1927 229.9 58.4993C218.655 59.0663 204.465 53.6171 196.511 45.648C188.656 37.8003 178.007 33.3921 166.903 33.3921C155.799 33.3921 145.15 37.8003 137.294 45.648C129.357 53.6171 115.151 59.0663 103.906 58.4993C98.0587 58.1949 92.2127 59.1244 86.748 61.2272C81.2834 63.3301 76.3223 66.5593 72.1873 70.7049C68.1958 74.6862 65.0522 79.4349 62.9463 84.6644C60.8404 89.894 59.8158 95.4959 59.9344 101.132Z" fill="black" fill-opacity="0.2"/>
<path fill-rule="evenodd" clip-rule="evenodd" d="M83.322 81.8711C80.831 84.353 78.8697 87.3147 77.5567 90.5767C76.2438 93.8388 75.6066 97.3333 75.6836 100.849C75.8411 109.511 73.6362 118.677 70.4391 126.615C67.2421 134.568 62.4701 142.71 56.3594 148.837C51.469 153.738 48.7225 160.379 48.7225 167.303C48.7225 174.226 51.469 180.867 56.3594 185.768C67.5413 196.966 75.3529 215.267 75.6836 231.11C75.808 237.718 78.4397 244.032 83.0454 248.773C87.6512 253.513 93.8867 256.325 100.489 256.64C109.151 257.065 118.269 259.695 126.27 263.254C134.255 266.798 142.318 271.79 148.445 277.917C153.346 282.807 159.987 285.554 166.911 285.554C173.834 285.554 180.475 282.807 185.377 277.917C191.503 271.79 199.551 266.798 207.552 263.239C215.552 259.695 224.671 257.065 233.333 256.64C239.941 256.328 246.183 253.513 250.791 248.765C255.398 244.017 258.025 237.694 258.138 231.079C258.453 215.298 266.154 197.076 277.352 185.879C279.792 183.454 281.73 180.572 283.056 177.398C284.382 174.224 285.069 170.82 285.079 167.38C285.09 163.941 284.422 160.533 283.115 157.351C281.808 154.169 279.887 151.276 277.462 148.837C271.351 142.726 266.595 134.584 263.382 126.63C260.17 118.677 257.965 109.511 258.138 100.849C258.213 97.3322 257.573 93.837 256.257 90.5748C254.942 87.3127 252.978 84.3517 250.484 81.8711C247.908 79.2816 244.814 77.2644 241.406 75.951C237.997 74.6376 234.35 74.0574 230.703 74.2485C215.017 75.0359 196.48 67.9173 185.377 56.8141C180.475 51.9237 173.834 49.1773 166.911 49.1773C159.987 49.1773 153.346 51.9237 148.445 56.8141C137.342 67.9173 118.805 75.0359 103.119 74.2485C99.4684 74.0552 95.8184 74.6342 92.4071 75.9477C88.9958 77.2612 85.9 79.2796 83.322 81.8711ZM59.9344 101.132C60.1707 113.07 53.6663 129.245 45.209 137.686C37.3661 145.541 32.9609 156.187 32.9609 167.287C32.9609 178.387 37.3661 189.033 45.209 196.887C53.556 205.219 59.6982 219.645 59.9344 231.41C60.1549 241.835 64.234 252.198 72.1873 260.152C79.5251 267.505 89.3411 271.857 99.7169 272.357C112.174 272.987 128.491 280.216 137.31 289.052C145.165 296.894 155.811 301.3 166.911 301.3C178.011 301.3 188.657 296.894 196.511 289.052C205.331 280.216 221.647 272.987 234.105 272.357C244.48 271.857 254.296 267.505 261.634 260.152C269.284 252.513 273.671 242.203 273.871 231.394C274.108 219.629 280.171 205.313 288.502 196.998C296.38 189.145 300.815 178.484 300.833 167.361C300.851 156.238 296.449 145.564 288.597 137.686C280.155 129.245 273.635 113.086 273.887 101.148C274.008 95.5091 272.984 89.9041 270.878 84.6717C268.772 79.4393 265.628 74.688 261.634 70.7049C257.497 66.5572 252.534 63.3269 247.066 61.2239C241.599 59.121 235.75 58.1927 229.9 58.4993C218.655 59.0663 204.465 53.6171 196.511 45.648C188.656 37.8003 178.007 33.3921 166.903 33.3921C155.799 33.3921 145.15 37.8003 137.294 45.648C129.357 53.6171 115.151 59.0663 103.906 58.4993C98.0587 58.1949 92.2127 59.1244 86.748 61.2272C81.2834 63.3301 76.3223 66.5593 72.1873 70.7049C68.1958 74.6862 65.0522 79.4349 62.9463 84.6644C60.8404 89.894 59.8158 95.4959 59.9344 101.132Z" fill="url(#paint0_linear_346_209)"/>
<path fill-rule="evenodd" clip-rule="evenodd" d="M223.064 108.289C224.218 108.931 225.234 109.794 226.055 110.828C226.875 111.863 227.484 113.049 227.846 114.318C228.209 115.588 228.317 116.917 228.166 118.228C228.015 119.54 227.607 120.809 226.965 121.963L171.123 222.507C170.481 223.661 169.619 224.677 168.584 225.498C167.55 226.318 166.364 226.927 165.094 227.289C163.824 227.652 162.496 227.76 161.184 227.609C159.872 227.458 158.603 227.05 157.449 226.408C156.295 225.766 155.279 224.903 154.458 223.869C153.638 222.835 153.029 221.649 152.667 220.379C152.304 219.109 152.196 217.78 152.347 216.469C152.498 215.157 152.906 213.888 153.548 212.734L209.39 112.19C210.032 111.036 210.894 110.02 211.929 109.199C212.963 108.379 214.149 107.77 215.419 107.408C216.689 107.045 218.017 106.937 219.329 107.088C220.641 107.239 221.91 107.648 223.064 108.289Z" fill="#5054FF"/>
<path fill-rule="evenodd" clip-rule="evenodd" d="M98.6377 166.654C100.303 164.577 102.725 163.245 105.372 162.951C108.018 162.657 110.673 163.425 112.754 165.086L168.616 209.767C170.699 211.434 172.034 213.86 172.328 216.511C172.622 219.162 171.851 221.821 170.184 223.904C168.518 225.987 166.092 227.322 163.441 227.616C160.79 227.91 158.131 227.139 156.048 225.472L100.206 180.811C99.1746 179.986 98.3158 178.966 97.6786 177.809C97.0415 176.652 96.6386 175.381 96.493 174.068C96.3473 172.755 96.4617 171.426 96.8297 170.158C97.1977 168.889 97.8121 167.706 98.6377 166.675" fill="#5054FF"/>
<defs>
<linearGradient id="paint0_linear_346_209" x1="69.5733" y1="53.9803" x2="247.781" y2="332.993" gradientUnits="userSpaceOnUse">
<stop stop-color="#FFB300"/>
<stop offset="0.7" stop-color="#DBA409"/>
</linearGradient>
</defs>
</svg>
